<svg viewBox="0 0 64 64" xmlns="http://www.w3.org/2000/svg"><g id="Partly_Cloudy" data-name="Partly Cloudy"><path d="m18.73633 28.39893a13.81543 13.81543 0 0 1 6.87207-8.563 1.00016 1.00016 0 0 1 .93262 1.76953 11.80751 11.80751 0 0 0 -5.875 7.31787.99984.99984 0 0 1 -1.92969-.5244z"></path><path d="m31 11v-6a1 1 0 0 1 2 0v6a1 1 0 0 1 -2 0zm-8.63379 2.31348-2-3.46436a1.00019 1.00019 0 0 0 -1.73242 1l2 3.46436a1.00017 1.00017 0 0 0 1.73242-1zm-11.36621 17.68652h-4a1 1 0 0 0 0 2h4a1 1 0 0 0 0-2zm9.36621 23.15088 2-3.46436a1.0002 1.0002 0 0 0 -1.73242-1l-2 3.46436a1.00021 1.00021 0 0 0 1.73242 1zm25-1-2-3.46436a1.00019 1.00019 0 0 0 -1.73242 1l2 3.46436a1.00017 1.00017 0 0 0 1.73242-1zm11.63379-22.15088h-4a1 1 0 0 0 0 2h4a1 1 0 0 0 0-2zm-13.63379-16.68652 2-3.46436a1.0002 1.0002 0 0 0 -1.73242-1l-2 3.46436a1.00023 1.00023 0 0 0 1.73242 1zm-29.05273 6.32031-5.19629-3a1.0002 1.0002 0 0 0 -1 1.73242l5.19629 3a1.00018 1.00018 0 0 0 1-1.73242zm18.68652 38.36621v-6a1 1 0 0 0 -2 0v6a1 1 0 0 0 2 0zm22.88281-14.36621-5.19629-3a1.00019 1.00019 0 0 0 -1 1.73242l5.19629 3a1.00018 1.00018 0 0 0 1-1.73242z"></path><path d="m29.625 19.72053a1 1 0 1 1 -1-1 1 1 0 0 1 1 1z"></path><path d="m54.83838 18.64648a6.93845 6.93845 0 0 0 -12.56293.137 16.74062 16.74062 0 0 0 -27.01813 13.21652 16.93812 16.93812 0 0 0 .10437 1.77832 6.89162 6.89162 0 0 0 -6.15369 5.44873 4.53206 4.53206 0 1 0 -.32569 9.05029h13.32228a5.56684 5.56684 0 0 0 3.09113-.95575 16.58028 16.58028 0 0 0 6.70428 1.42109 16.72158 16.72158 0 0 0 16.51605-19.46534h6.26666a5.4396 5.4396 0 0 0 5.40235-4.44921 5.33226 5.33226 0 0 0 -5.34668-6.18165zm-45.95606 27.63086a2.54109 2.54109 0 0 1 -2.53564-2.87451 2.56994 2.56994 0 0 1 3.05322-2.13574 1.42122 1.42122 0 0 0 1.70117-1.22309 4.94373 4.94373 0 0 1 9.46973-1.27442 1.43712 1.43712 0 0 0 1.46094.88867 3.3352 3.3352 0 0 1 3.60058 3.85352 3.42582 3.42582 0 0 1 -3.42773 2.76562zm23.11768.46534a14.61806 14.61806 0 0 1 -5.17615-.94928 5.02867 5.02867 0 0 0 .78308-1.96527 5.33274 5.33274 0 0 0 -5.34716-6.18165 6.87714 6.87714 0 0 0 -4.87-3.76916 14.90927 14.90927 0 0 1 -.13245-1.87732 14.73819 14.73819 0 0 1 23.65491-11.73932 4.52286 4.52286 0 0 0 .54871 9.01666h5.00464a14.62966 14.62966 0 0 1 -14.46558 17.46534zm26.21045-22.231a3.42582 3.42582 0 0 1 -3.42774 2.76562h-13.32177a2.54123 2.54123 0 0 1 -2.53614-2.87451 2.57037 2.57037 0 0 1 3.0532-2.1357 1.42145 1.42145 0 0 0 1.7012-1.22309 4.94393 4.94393 0 0 1 9.46924-1.27637 1.448 1.448 0 0 0 1.46142.89111 3.334 3.334 0 0 1 3.60059 3.85298z"></path></g></svg>