<?xml version="1.0" encoding="iso-8859-1"?>
<!-- Uploaded to: SVG Repo, www.svgrepo.com, Generator: SVG Repo Mixer Tools -->
<svg height="119px" width="119px" version="1.1" id="Layer_1" xmlns="http://www.w3.org/2000/svg" xmlns:xlink="http://www.w3.org/1999/xlink" 
	 viewBox="0 0 512 512" xml:space="preserve">
<circle style="fill:#386895;" cx="256" cy="256" r="256"/>
<path style="fill:#273B7A;" d="M282.469,510.645C411.417,497.398,512,388.448,512,256c0-9.101-0.483-18.089-1.41-26.945
	L353.583,72.049l-4.118,20.383l-48.828-48.828l-10.414,37.928l66.317,66.317l-3.251,18.58l-52.65-52.652l-4.772,10.388
	l-80.562-80.562l-5.63,40.701l82.558,82.558l15.246,15.246l1.029-1.029l81.805,81.804l-20.54,0.002l-86.19-86.187l-13.178,6.072
	L159.48,71.845l-12.543,37.157l88.871,89.71l-14.308,6.592l-63.083-63.083l-8.016,40.093l38.166,38.166l-92.027,42.401
	L252.93,419.273L232.441,432.7l-27.893,0.022L282.469,510.645z"/>
<path style="fill:#FFFFFF;" d="M229.423,443.044c-19.408,0-35.195-15.789-35.195-35.197c0-4.761,3.858-8.62,8.62-8.62
	s8.62,3.858,8.62,8.62c0,9.902,8.056,17.958,17.956,17.958c9.902,0,17.958-8.056,17.958-17.958V115.502
	c0-4.761,3.858-8.62,8.62-8.62c4.761,0,8.62,3.858,8.62,8.62v292.345C264.62,427.255,248.83,443.044,229.423,443.044z"/>
<path style="fill:#FEE187;" d="M96.539,262.882h158.887v-134.22C167.622,128.924,96.539,188.912,96.539,262.882z"/>
<path style="fill:#FFC61B;" d="M256,128.657c-0.191,0-0.383,0.005-0.574,0.007v134.22h160.035
	C415.461,188.752,344.067,128.657,256,128.657z"/>
<path style="fill:#E09112;" d="M176.269,262.882c0-74.131,35.697-134.227,79.731-134.227s79.731,60.095,79.731,134.227H176.269z"/>
<path style="fill:#FF5419;" d="M256.288,128.669v134.215h79.443C335.731,188.914,300.189,128.931,256.288,128.669z"/>
<g>
	<path style="fill:#C6F5F7;" d="M142.222,97.583c0-8.944,16.194-25.534,16.194-25.534s16.194,16.591,16.194,25.534
		s-7.251,16.194-16.194,16.194C149.473,113.778,142.222,106.527,142.222,97.583z"/>
	<path style="fill:#C6F5F7;" d="M142.222,167.757c0-8.944,16.194-25.534,16.194-25.534s16.194,16.591,16.194,25.534
		c0,8.944-7.251,16.194-16.194,16.194S142.222,176.7,142.222,167.757z"/>
	<path style="fill:#C6F5F7;" d="M195.169,154.472c0-8.944,16.194-25.534,16.194-25.534s16.193,16.591,16.193,25.534
		c0,8.944-7.251,16.194-16.194,16.194C202.418,170.667,195.169,163.416,195.169,154.472z"/>
	<path style="fill:#C6F5F7;" d="M199.111,69.139c0-8.944,16.194-25.534,16.194-25.534S231.5,60.195,231.5,69.139
		s-7.251,16.194-16.194,16.194C206.362,85.333,199.111,78.083,199.111,69.139z"/>
</g>
<g>
	<path style="fill:#71E2EF;" d="M284.444,69.139c0-8.944,16.194-25.534,16.194-25.534s16.194,16.591,16.194,25.534
		s-7.251,16.194-16.194,16.194S284.444,78.083,284.444,69.139z"/>
	<path style="fill:#71E2EF;" d="M284.444,139.312c0-8.944,16.194-25.534,16.194-25.534s16.194,16.591,16.194,25.534
		c0,8.944-7.251,16.194-16.194,16.194S284.444,148.256,284.444,139.312z"/>
	<path style="fill:#71E2EF;" d="M337.391,97.583c0-8.944,16.194-25.534,16.194-25.534s16.194,16.591,16.194,25.534
		s-7.252,16.194-16.196,16.194S337.391,106.527,337.391,97.583z"/>
	<path style="fill:#71E2EF;" d="M341.333,167.757c0-8.944,16.194-25.534,16.194-25.534s16.194,16.591,16.194,25.534
		c0,8.944-7.251,16.194-16.194,16.194C348.584,183.951,341.333,176.7,341.333,167.757z"/>
</g>
</svg>